<svg xmlns="http://www.w3.org/2000/svg" version="1.1" xmlns:xlink="http://www.w3.org/1999/xlink" xmlns:svgjs="http://svgjs.com/svgjs" width="1000" height="1000"><rect width="1000" height="1000" rx="200" ry="200" fill="#ebebeb"></rect><g transform="matrix(5.9880239520958085,0,0,5.9880239520958085,118.75449101796409,37.40743963732689)"><svg xmlns="http://www.w3.org/2000/svg" version="1.1" xmlns:xlink="http://www.w3.org/1999/xlink" xmlns:svgjs="http://svgjs.com/svgjs" width="134" height="167"><svg width="134" height="167" viewBox="0 0 134 167" fill="none" xmlns="http://www.w3.org/2000/svg">
<g clip-path="url(#clip0_114879_490)">
<path d="M66.7297 43.5332H45.8125C45.5846 43.5332 45.366 43.4427 45.2048 43.2815C45.0437 43.1203 44.9531 42.9017 44.9531 42.6738C44.9531 42.4459 45.0437 42.2273 45.2048 42.0662C45.366 41.905 45.5846 41.8145 45.8125 41.8145H66.7297C66.9576 41.8145 67.1762 41.905 67.3374 42.0662C67.4985 42.2273 67.5891 42.4459 67.5891 42.6738C67.5891 42.9017 67.4985 43.1203 67.3374 43.2815C67.1762 43.4427 66.9576 43.5332 66.7297 43.5332Z" fill="black"></path>
<path d="M80.2734 49.376H45.8125C45.5846 49.376 45.366 49.2854 45.2048 49.1243C45.0437 48.9631 44.9531 48.7445 44.9531 48.5166C44.9531 48.2887 45.0437 48.0701 45.2048 47.9089C45.366 47.7478 45.5846 47.6572 45.8125 47.6572H80.3594C80.5873 47.6572 80.8059 47.7478 80.967 47.9089C81.1282 48.0701 81.2187 48.2887 81.2187 48.5166C81.2187 48.7445 81.1282 48.9631 80.967 49.1243C80.8059 49.2854 80.5873 49.376 80.3594 49.376H80.2734Z" fill="black"></path>
<path d="M73.5016 55.2207H45.8125C45.5846 55.2207 45.366 55.1302 45.2048 54.969C45.0437 54.8078 44.9531 54.5892 44.9531 54.3613C44.9531 54.1334 45.0437 53.9148 45.2048 53.7537C45.366 53.5925 45.5846 53.502 45.8125 53.502H73.5016C73.7295 53.502 73.9481 53.5925 74.1092 53.7537C74.2704 53.9148 74.3609 54.1334 74.3609 54.3613C74.3609 54.5892 74.2704 54.8078 74.1092 54.969C73.9481 55.1302 73.7295 55.2207 73.5016 55.2207Z" fill="black"></path>
<path d="M80.2734 61.0469H45.8125C45.5846 61.0469 45.366 60.9563 45.2048 60.7952C45.0437 60.634 44.9531 60.4154 44.9531 60.1875C44.9531 59.9596 45.0437 59.741 45.2048 59.5798C45.366 59.4187 45.5846 59.3281 45.8125 59.3281H80.3594C80.5873 59.3281 80.8059 59.4187 80.967 59.5798C81.1282 59.741 81.2187 59.9596 81.2187 60.1875C81.2187 60.4154 81.1282 60.634 80.967 60.7952C80.8059 60.9563 80.5873 61.0469 80.3594 61.0469H80.2734Z" fill="black"></path>
<path d="M85.2063 67.4066H40.7938C40.1039 67.4021 39.4438 67.1249 38.9576 66.6354C38.4714 66.146 38.1985 65.4841 38.1985 64.7941V38.0676C38.1985 37.3777 38.4714 36.7158 38.9576 36.2263C39.4438 35.7369 40.1039 35.4596 40.7938 35.4551H85.2063C85.8962 35.4596 86.5563 35.7369 87.0425 36.2263C87.5287 36.7158 87.8016 37.3777 87.8016 38.0676V64.8285C87.7926 65.5125 87.5158 66.1656 87.0305 66.6476C86.5452 67.1297 85.8903 67.4022 85.2063 67.4066ZM40.7938 37.1566C40.5522 37.1566 40.3205 37.2526 40.1497 37.4234C39.9788 37.5943 39.8829 37.826 39.8829 38.0676V64.8285C39.8828 65.0717 39.9782 65.3052 40.1486 65.4788C40.319 65.6524 40.5506 65.7521 40.7938 65.7566H85.2063C85.4495 65.7521 85.6811 65.6524 85.8515 65.4788C86.0219 65.3052 86.1173 65.0717 86.1172 64.8285V38.0676C86.1172 37.948 86.0937 37.8295 86.0479 37.719C86.0021 37.6085 85.935 37.508 85.8504 37.4234C85.7658 37.3389 85.6654 37.2718 85.5549 37.226C85.4444 37.1802 85.3259 37.1566 85.2063 37.1566H40.7938Z" fill="black"></path>
<path d="M63.0001 81.6549C62.7768 81.6549 62.5626 81.5661 62.4046 81.4082C62.2467 81.2503 62.158 81.0361 62.158 80.8127V66.5986C62.158 66.3707 62.2485 66.1521 62.4097 65.991C62.5708 65.8298 62.7894 65.7393 63.0173 65.7393C63.2453 65.7393 63.4638 65.8298 63.625 65.991C63.7862 66.1521 63.8767 66.3707 63.8767 66.5986V80.8127C63.8768 80.9262 63.8539 81.0386 63.8095 81.1431C63.765 81.2476 63.6999 81.342 63.618 81.4207C63.5361 81.4994 63.4392 81.5607 63.333 81.6009C63.2268 81.6412 63.1136 81.6595 63.0001 81.6549Z" fill="black"></path>
<path d="M28.4703 116.546H10.7672C10.0392 116.546 9.34052 116.259 8.82254 115.747C8.30457 115.236 8.00904 114.541 8 113.813V100.389C8 99.6553 8.29154 98.9515 8.81049 98.4326C9.32944 97.9136 10.0333 97.6221 10.7672 97.6221H28.4703C29.2012 97.6266 29.9007 97.9202 30.4159 98.4386C30.9311 98.9571 31.2203 99.6583 31.2203 100.389V113.813C31.2113 114.538 30.9182 115.23 30.4039 115.741C29.8896 116.252 29.1953 116.541 28.4703 116.546ZM10.7672 99.358C10.48 99.358 10.2046 99.4721 10.0015 99.6751C9.79846 99.8782 9.68438 100.154 9.68438 100.441V113.813C9.68889 114.097 9.80496 114.368 10.0075 114.567C10.2101 114.767 10.483 114.878 10.7672 114.878H28.4703C28.7529 114.878 29.024 114.766 29.2238 114.566C29.4237 114.366 29.5359 114.095 29.5359 113.813V100.389C29.536 100.105 29.4243 99.8322 29.2249 99.6296C29.0255 99.427 28.7545 99.311 28.4703 99.3064L10.7672 99.358Z" fill="black"></path>
<path d="M23.4687 105.219H13.3452C13.1173 105.219 12.8987 105.128 12.7375 104.967C12.5764 104.806 12.4858 104.587 12.4858 104.359C12.4858 104.131 12.5764 103.913 12.7375 103.752C12.8987 103.591 13.1173 103.5 13.3452 103.5H23.4687C23.6966 103.5 23.9152 103.591 24.0763 103.752C24.2375 103.913 24.328 104.131 24.328 104.359C24.328 104.587 24.2375 104.806 24.0763 104.967C23.9152 105.128 23.6966 105.219 23.4687 105.219Z" fill="black"></path>
<path d="M25.8749 110.65H13.3452C13.1173 110.65 12.8987 110.56 12.7375 110.399C12.5764 110.238 12.4858 110.019 12.4858 109.791C12.4858 109.563 12.5764 109.345 12.7375 109.183C12.8987 109.022 13.1173 108.932 13.3452 108.932H25.8749C26.1028 108.932 26.3214 109.022 26.4826 109.183C26.6437 109.345 26.7343 109.563 26.7343 109.791C26.7343 110.019 26.6437 110.238 26.4826 110.399C26.3214 110.56 26.1028 110.65 25.8749 110.65Z" fill="black"></path>
<path d="M57.3968 116.546H39.6937C38.9657 116.546 38.267 116.259 37.7491 115.747C37.2311 115.236 36.9356 114.541 36.9265 113.813V100.389C36.9265 99.6553 37.2181 98.9515 37.737 98.4326C38.256 97.9136 38.9598 97.6221 39.6937 97.6221H57.3968C58.1277 97.6266 58.8272 97.9202 59.3424 98.4386C59.8577 98.9571 60.1468 99.6583 60.1468 100.389V113.813C60.1378 114.538 59.8447 115.23 59.3304 115.741C58.8161 116.252 58.1218 116.541 57.3968 116.546ZM39.6937 99.358C39.4065 99.358 39.1311 99.4721 38.928 99.6751C38.725 99.8782 38.6109 100.154 38.6109 100.441V113.813C38.6154 114.097 38.7315 114.368 38.9341 114.567C39.1366 114.767 39.4095 114.878 39.6937 114.878H57.3968C57.6794 114.878 57.9505 114.766 58.1503 114.566C58.3502 114.366 58.4625 114.095 58.4625 113.813V100.389C58.4625 100.105 58.3508 99.8322 58.1514 99.6296C57.952 99.427 57.681 99.311 57.3968 99.3064L39.6937 99.358Z" fill="black"></path>
<path d="M48.5454 99.3063C48.4334 99.3085 48.322 99.2884 48.2178 99.2471C48.1137 99.2058 48.0188 99.1442 47.9388 99.0657C47.8587 98.9873 47.7951 98.8937 47.7517 98.7904C47.7084 98.6871 47.686 98.5761 47.686 98.4641V80.8125C47.686 80.5846 47.7766 80.366 47.9377 80.2048C48.0989 80.0437 48.3175 79.9531 48.5454 79.9531C48.7733 79.9531 48.9919 80.0437 49.1531 80.2048C49.3142 80.366 49.4048 80.5846 49.4048 80.8125V98.4641C49.4048 98.5761 49.3825 98.6871 49.3391 98.7904C49.2957 98.8937 49.2321 98.9873 49.1521 99.0657C49.072 99.1442 48.9772 99.2058 48.873 99.2471C48.7688 99.2884 48.6574 99.3085 48.5454 99.3063Z" fill="black"></path>
<path d="M52.3438 105.219H42.272C42.0441 105.219 41.8255 105.128 41.6643 104.967C41.5031 104.806 41.4126 104.587 41.4126 104.359C41.4126 104.131 41.5031 103.913 41.6643 103.752C41.8255 103.591 42.0441 103.5 42.272 103.5H52.3438C52.5718 103.5 52.7904 103.591 52.9515 103.752C53.1127 103.913 53.2032 104.131 53.2032 104.359C53.2032 104.587 53.1127 104.806 52.9515 104.967C52.7904 105.128 52.5718 105.219 52.3438 105.219Z" fill="black"></path>
<path d="M54.8017 110.65H42.272C42.0441 110.65 41.8255 110.56 41.6643 110.399C41.5031 110.238 41.4126 110.019 41.4126 109.791C41.4126 109.563 41.5031 109.345 41.6643 109.183C41.8255 109.022 42.0441 108.932 42.272 108.932H54.8017C55.0296 108.932 55.2482 109.022 55.4093 109.183C55.5705 109.345 55.661 109.563 55.661 109.791C55.661 110.019 55.5705 110.238 55.4093 110.399C55.2482 110.56 55.0296 110.65 54.8017 110.65Z" fill="black"></path>
<path d="M86.3062 116.546H68.603C67.878 116.541 67.1837 116.252 66.6695 115.741C66.1552 115.23 65.862 114.538 65.853 113.813V100.389C65.853 99.6583 66.1422 98.9571 66.6574 98.4386C67.1727 97.9202 67.8721 97.6266 68.603 97.6221H86.3062C87.0401 97.6221 87.7439 97.9136 88.2628 98.4326C88.7818 98.9515 89.0733 99.6553 89.0733 100.389V113.813C89.0643 114.541 88.7688 115.236 88.2508 115.747C87.7328 116.259 87.0341 116.546 86.3062 116.546ZM68.603 99.358C68.3188 99.3625 68.0478 99.4786 67.8484 99.6812C67.6491 99.8837 67.5374 100.157 67.5374 100.441V113.813C67.5374 114.095 67.6497 114.366 67.8495 114.566C68.0494 114.766 68.3204 114.878 68.603 114.878H86.3062C86.5904 114.878 86.8632 114.767 87.0658 114.567C87.2684 114.368 87.3845 114.097 87.389 113.813V100.389C87.389 100.247 87.361 100.106 87.3065 99.9749C87.2521 99.8435 87.1724 99.7241 87.0718 99.6236C86.9713 99.523 86.8519 99.4433 86.7205 99.3889C86.5892 99.3345 86.4484 99.3064 86.3062 99.3064L68.603 99.358Z" fill="black"></path>
<path d="M77.4547 99.3063C77.2314 99.3063 77.0172 99.2175 76.8592 99.0596C76.7013 98.9016 76.6125 98.6874 76.6125 98.4641V80.8125C76.6125 80.5846 76.7031 80.366 76.8643 80.2048C77.0254 80.0437 77.244 79.9531 77.4719 79.9531C77.6998 79.9531 77.9184 80.0437 78.0796 80.2048C78.2408 80.366 78.3313 80.5846 78.3313 80.8125V98.4641C78.3314 98.5776 78.3085 98.69 78.2641 98.7945C78.2196 98.899 78.1545 98.9934 78.0726 99.0721C77.9907 99.1507 77.8938 99.212 77.7876 99.2523C77.6814 99.2925 77.5682 99.3109 77.4547 99.3063Z" fill="black"></path>
<path d="M81.2704 105.219H71.1985C70.9706 105.219 70.752 105.128 70.5908 104.967C70.4297 104.806 70.3391 104.587 70.3391 104.359C70.3391 104.131 70.4297 103.913 70.5908 103.752C70.752 103.591 70.9706 103.5 71.1985 103.5H81.2704C81.4983 103.5 81.7169 103.591 81.878 103.752C82.0392 103.913 82.1297 104.131 82.1297 104.359C82.1297 104.587 82.0392 104.806 81.878 104.967C81.7169 105.128 81.4983 105.219 81.2704 105.219Z" fill="black"></path>
<path d="M83.7282 110.65H71.1985C70.9706 110.65 70.752 110.56 70.5908 110.399C70.4297 110.238 70.3391 110.019 70.3391 109.791C70.3391 109.563 70.4297 109.345 70.5908 109.183C70.752 109.022 70.9706 108.932 71.1985 108.932H83.7282C83.9561 108.932 84.1747 109.022 84.3358 109.183C84.497 109.345 84.5876 109.563 84.5876 109.791C84.5876 110.019 84.497 110.238 84.3358 110.399C84.1747 110.56 83.9561 110.65 83.7282 110.65Z" fill="black"></path>
<path d="M115.233 116.546H97.5295C96.8045 116.541 96.1102 116.252 95.596 115.741C95.0817 115.23 94.7885 114.538 94.7795 113.813V100.389C94.7795 99.6583 95.0687 98.9571 95.5839 98.4386C96.0992 97.9202 96.7986 97.6266 97.5295 97.6221H115.233C115.967 97.6221 116.67 97.9136 117.189 98.4326C117.708 98.9515 118 99.6553 118 100.389V113.813C117.991 114.541 117.695 115.236 117.177 115.747C116.659 116.259 115.961 116.546 115.233 116.546ZM97.5295 99.358C97.2453 99.3625 96.9743 99.4786 96.775 99.6812C96.5756 99.8837 96.4639 100.157 96.4639 100.441V113.813C96.4639 114.095 96.5762 114.366 96.776 114.566C96.9759 114.766 97.2469 114.878 97.5295 114.878H115.233C115.511 114.87 115.775 114.754 115.97 114.555C116.166 114.357 116.277 114.091 116.281 113.813V100.389C116.281 100.247 116.253 100.106 116.199 99.9749C116.144 99.8435 116.064 99.7241 115.964 99.6236C115.863 99.523 115.744 99.4433 115.613 99.3889C115.481 99.3345 115.34 99.3064 115.198 99.3064L97.5295 99.358Z" fill="black"></path>
<path d="M106.381 99.3063C106.158 99.3063 105.944 99.2175 105.786 99.0596C105.628 98.9016 105.539 98.6874 105.539 98.4641V81.6547H20.4609V98.4641C20.4609 98.692 20.3704 98.9106 20.2092 99.0717C20.0481 99.2329 19.8295 99.3234 19.6016 99.3234C19.3736 99.3234 19.1551 99.2329 18.9939 99.0717C18.8327 98.9106 18.7422 98.692 18.7422 98.4641V80.8125C18.7422 80.5846 18.8327 80.366 18.9939 80.2048C19.1551 80.0437 19.3736 79.9531 19.6016 79.9531H106.381C106.609 79.9531 106.828 80.0437 106.989 80.2048C107.15 80.366 107.241 80.5846 107.241 80.8125V98.4641C107.241 98.5761 107.218 98.6871 107.175 98.7904C107.132 98.8937 107.068 98.9873 106.988 99.0657C106.908 99.1442 106.813 99.2058 106.709 99.2471C106.605 99.2884 106.493 99.3085 106.381 99.3063Z" fill="black"></path>
<path d="M110.197 105.219H100.125C99.8971 105.219 99.6785 105.128 99.5173 104.967C99.3562 104.806 99.2656 104.587 99.2656 104.359C99.2656 104.131 99.3562 103.913 99.5173 103.752C99.6785 103.591 99.8971 103.5 100.125 103.5H110.197C110.425 103.5 110.643 103.591 110.805 103.752C110.966 103.913 111.056 104.131 111.056 104.359C111.056 104.587 110.966 104.806 110.805 104.967C110.643 105.128 110.425 105.219 110.197 105.219Z" fill="black"></path>
<path d="M112.655 110.65H100.125C99.8971 110.65 99.6785 110.56 99.5173 110.399C99.3562 110.238 99.2656 110.019 99.2656 109.791C99.2656 109.563 99.3562 109.345 99.5173 109.183C99.6785 109.022 99.8971 108.932 100.125 108.932H112.655C112.883 108.932 113.101 109.022 113.262 109.183C113.424 109.345 113.514 109.563 113.514 109.791C113.514 110.019 113.424 110.238 113.262 110.399C113.101 110.56 112.883 110.65 112.655 110.65Z" fill="black"></path>
</g>
<defs>
<clipPath id="clip0_114879_490">
<rect width="110" height="137.5" fill="white" transform="translate(8 21)"></rect>
</clipPath>
</defs>
</svg></svg></g></svg>